<svg width="18" height="18" viewBox="0 0 18 18" fill="none" xmlns="http://www.w3.org/2000/svg">
<path fill-rule="evenodd" clip-rule="evenodd" d="M11.2576 4C13.3356 4 15 5.78674 15 7.97407C15 9.78153 14.0968 11.3253 12.2275 12.8728C11.5866 13.4034 10.8967 13.9072 10.1816 14.3719C9.95131 14.5216 9.72976 14.6597 9.52267 14.7831C9.41547 14.847 9.32481 14.8995 9.26742 14.9314C9.10246 15.0229 8.8979 15.0229 8.73293 14.9314C8.67554 14.8995 8.58487 14.847 8.47766 14.7831C8.27054 14.6597 8.04896 14.5216 7.81864 14.3719C7.10346 13.9072 6.41349 13.4034 5.77258 12.8728C3.90319 11.3253 3 9.78153 3 7.97407C3 5.78674 4.66435 4 6.74237 4C7.56662 4 8.35487 4.28419 9.00004 4.80289C9.64529 4.28419 10.4335 4 11.2576 4Z" fill="#FF3A3A"/>
</svg>
